<svg width="108" height="30" viewBox="0 0 108 30" fill="none" xmlns="http://www.w3.org/2000/svg">
<path d="M61.75 20.6484C60.6875 20.6484 59.75 20.4297 58.9375 19.9922C58.1406 19.5391 57.5156 18.9219 57.0625 18.1406C56.6094 17.3438 56.3828 16.4375 56.3828 15.4219C56.3828 14.3125 56.6328 13.3594 57.1328 12.5625C57.6484 11.75 58.3203 11.1328 59.1484 10.7109C59.9922 10.2734 60.8906 10.0547 61.8438 10.0547C62.8594 10.0547 63.75 10.2734 64.5156 10.7109C65.2812 11.1484 65.875 11.7578 66.2969 12.5391C66.7344 13.3203 66.9531 14.2188 66.9531 15.2344C66.9531 16.25 66.7188 17.1719 66.25 18C65.7969 18.8125 65.1719 19.4609 64.375 19.9453C63.5938 20.4141 62.7188 20.6484 61.75 20.6484ZM61.9844 19.2891C62.4219 19.2891 62.7969 19.1562 63.1094 18.8906C63.4219 18.6094 63.6641 18.2109 63.8359 17.6953C64.0078 17.1797 64.0938 16.5781 64.0938 15.8906C64.0938 14.5469 63.8594 13.4531 63.3906 12.6094C62.9219 11.7656 62.2969 11.3438 61.5156 11.3438C60.8438 11.3438 60.3047 11.6641 59.8984 12.3047C59.4922 12.9453 59.2891 13.7969 59.2891 14.8594C59.2891 15.7031 59.4062 16.4609 59.6406 17.1328C59.875 17.8047 60.1953 18.3359 60.6016 18.7266C61.0078 19.1016 61.4688 19.2891 61.9844 19.2891Z" fill="#FDF6EB"/>
<path d="M55.8906 18.6562C55.6406 19.2812 55.2188 19.7734 54.625 20.1328C54.0469 20.4922 53.4141 20.6719 52.7266 20.6719C51.6797 20.6719 50.8203 20.3672 50.1484 19.7578C49.4922 19.1484 49.1641 18.2266 49.1641 16.9922L49.2344 11.6484H47.5938V10.9688L51.2266 7.96875H51.9062L51.8594 11.0625L51.8125 16.6875C51.8125 17.3906 51.9766 17.9062 52.3047 18.2344C52.6328 18.5469 53.0938 18.7031 53.6875 18.7031C54 18.7031 54.2969 18.6406 54.5781 18.5156C54.875 18.3906 55.1328 18.2266 55.3516 18.0234L55.8906 18.6562ZM50.6406 11.6484V10.2656H55.2344V11.6484H50.6406Z" fill="#FDF6EB"/>
<path d="M41.0781 20.4609L41.0078 19.4297L42.5781 19.0781C42.5938 19.0156 42.6094 18.8828 42.625 18.6797C42.6406 18.4766 42.6562 18.2109 42.6719 17.8828C42.6875 17.5391 42.6953 17.1406 42.6953 16.6875L42.7188 14.9062C42.7188 14.4219 42.7031 13.9766 42.6719 13.5703C42.6406 13.1484 42.5859 12.7578 42.5078 12.3984L40.9375 12.0703V11.1094L44.9453 10.1016L45.4844 10.5C45.4375 10.9844 45.3984 11.4766 45.3672 11.9766C45.3516 12.4609 45.3438 13.0234 45.3438 13.6641V16.6172C45.3438 17.1953 45.3516 17.7188 45.3672 18.1875C45.3984 18.6562 45.4375 18.9531 45.4844 19.0781L47.0547 19.4297L46.9844 20.4609H41.0781ZM44.0547 7.92188C43.5078 7.92188 43.0703 7.75781 42.7422 7.42969C42.4141 7.08594 42.25 6.67969 42.25 6.21094C42.25 5.75781 42.4141 5.35938 42.7422 5.01562C43.0703 4.67188 43.5078 4.5 44.0547 4.5C44.6016 4.5 45.0312 4.67188 45.3438 5.01562C45.6562 5.35938 45.8125 5.75781 45.8125 6.21094C45.8125 6.67969 45.6562 7.08594 45.3438 7.42969C45.0312 7.75781 44.6016 7.92188 44.0547 7.92188Z" fill="#FDF6EB"/>
<path d="M36.1328 20.6484C35.1797 20.6484 34.3125 20.4375 33.5312 20.0156C32.7656 19.5938 32.1484 19 31.6797 18.2344C31.2266 17.4688 31 16.5859 31 15.5859C31 14.5859 31.2422 13.6719 31.7266 12.8438C32.2109 12 32.875 11.3281 33.7188 10.8281C34.5781 10.3125 35.5547 10.0547 36.6484 10.0547C37.3359 10.0547 37.9375 10.1484 38.4531 10.3359C38.9844 10.5078 39.3984 10.75 39.6953 11.0625C39.9922 11.375 40.1406 11.7188 40.1406 12.0938C40.1406 12.4375 40.0312 12.7031 39.8125 12.8906C39.6094 13.0781 39.3438 13.1719 39.0156 13.1719C38.7344 13.1719 38.4844 13.1172 38.2656 13.0078C38.0625 12.8984 37.8203 12.7188 37.5391 12.4688L35.9922 11.0625L37.0703 11.3203C36.5547 11.2109 36.0469 11.2812 35.5469 11.5312C35.0625 11.7656 34.6641 12.1641 34.3516 12.7266C34.0391 13.2891 33.8828 14.0078 33.8828 14.8828C33.8828 16.1016 34.1797 17.0312 34.7734 17.6719C35.3828 18.2969 36.1328 18.6094 37.0234 18.6094C37.5234 18.6094 37.9844 18.5078 38.4062 18.3047C38.8438 18.1016 39.2656 17.7578 39.6719 17.2734L40.375 17.9062C39.9375 18.8125 39.3438 19.5 38.5938 19.9688C37.8438 20.4219 37.0234 20.6484 36.1328 20.6484Z" fill="#FDF6EB"/>
<path d="M102.75 20.5469C101.688 20.5469 100.75 20.3281 99.9375 19.8906C99.1406 19.4375 98.5156 18.8203 98.0625 18.0391C97.6094 17.2422 97.3828 16.3359 97.3828 15.3203C97.3828 14.2109 97.6328 13.2578 98.1328 12.4609C98.6484 11.6484 99.3203 11.0312 100.148 10.6094C100.992 10.1719 101.891 9.95312 102.844 9.95312C103.859 9.95312 104.75 10.1719 105.516 10.6094C106.281 11.0469 106.875 11.6562 107.297 12.4375C107.734 13.2188 107.953 14.1172 107.953 15.1328C107.953 16.1484 107.719 17.0703 107.25 17.8984C106.797 18.7109 106.172 19.3594 105.375 19.8438C104.594 20.3125 103.719 20.5469 102.75 20.5469ZM102.984 19.1875C103.422 19.1875 103.797 19.0547 104.109 18.7891C104.422 18.5078 104.664 18.1094 104.836 17.5938C105.008 17.0781 105.094 16.4766 105.094 15.7891C105.094 14.4453 104.859 13.3516 104.391 12.5078C103.922 11.6641 103.297 11.2422 102.516 11.2422C101.844 11.2422 101.305 11.5625 100.898 12.2031C100.492 12.8438 100.289 13.6953 100.289 14.7578C100.289 15.6016 100.406 16.3594 100.641 17.0312C100.875 17.7031 101.195 18.2344 101.602 18.625C102.008 19 102.469 19.1875 102.984 19.1875Z" fill="#FDF6EB"/>
<path d="M96.8906 18.5547C96.6406 19.1797 96.2188 19.6719 95.625 20.0312C95.0469 20.3906 94.4141 20.5703 93.7266 20.5703C92.6797 20.5703 91.8203 20.2656 91.1484 19.6562C90.4922 19.0469 90.1641 18.125 90.1641 16.8906L90.2344 11.5469H88.5938V10.8672L92.2266 7.86719H92.9062L92.8594 10.9609L92.8125 16.5859C92.8125 17.2891 92.9766 17.8047 93.3047 18.1328C93.6328 18.4453 94.0938 18.6016 94.6875 18.6016C95 18.6016 95.2969 18.5391 95.5781 18.4141C95.875 18.2891 96.1328 18.125 96.3516 17.9219L96.8906 18.5547ZM91.6406 11.5469V10.1641H96.2344V11.5469H91.6406Z" fill="#FDF6EB"/>
<path d="M82.2891 20.5469C81.2266 20.5469 80.2891 20.3281 79.4766 19.8906C78.6797 19.4375 78.0547 18.8203 77.6016 18.0391C77.1484 17.2422 76.9219 16.3359 76.9219 15.3203C76.9219 14.2109 77.1719 13.2578 77.6719 12.4609C78.1875 11.6484 78.8594 11.0312 79.6875 10.6094C80.5312 10.1719 81.4297 9.95312 82.3828 9.95312C83.3984 9.95312 84.2891 10.1719 85.0547 10.6094C85.8203 11.0469 86.4141 11.6562 86.8359 12.4375C87.2734 13.2188 87.4922 14.1172 87.4922 15.1328C87.4922 16.1484 87.2578 17.0703 86.7891 17.8984C86.3359 18.7109 85.7109 19.3594 84.9141 19.8438C84.1328 20.3125 83.2578 20.5469 82.2891 20.5469ZM82.5234 19.1875C82.9609 19.1875 83.3359 19.0547 83.6484 18.7891C83.9609 18.5078 84.2031 18.1094 84.375 17.5938C84.5469 17.0781 84.6328 16.4766 84.6328 15.7891C84.6328 14.4453 84.3984 13.3516 83.9297 12.5078C83.4609 11.6641 82.8359 11.2422 82.0547 11.2422C81.3828 11.2422 80.8438 11.5625 80.4375 12.2031C80.0312 12.8438 79.8281 13.6953 79.8281 14.7578C79.8281 15.6016 79.9453 16.3594 80.1797 17.0312C80.4141 17.7031 80.7344 18.2344 81.1406 18.625C81.5469 19 82.0078 19.1875 82.5234 19.1875Z" fill="#FDF6EB"/>
<path d="M75.3047 20.3594H69.2812L69.2109 19.3516L70.6641 18.9766C70.6797 18.7734 70.6875 18.5703 70.6875 18.3672C70.7031 18.1484 70.7109 17.8906 70.7109 17.5938C70.7109 17.2969 70.7109 16.9375 70.7109 16.5156C70.7109 16.0781 70.7109 15.5391 70.7109 14.8984L70.6875 11.5469V9.22656C70.6875 8.21094 70.8672 7.3125 71.2266 6.53125C71.6016 5.73438 72.1094 5.11719 72.75 4.67969C73.3906 4.22656 74.1172 4 74.9297 4C75.6641 4 76.2734 4.15625 76.7578 4.46875C77.2422 4.76562 77.4844 5.15625 77.4844 5.64062C77.4844 5.9375 77.3906 6.16406 77.2031 6.32031C77.0312 6.47656 76.7891 6.55469 76.4766 6.55469C76.0547 6.55469 75.6328 6.36719 75.2109 5.99219L73.9688 4.82031L74.8125 4.96094C74.3281 4.96094 73.9453 5.25 73.6641 5.82812C73.3984 6.39062 73.2656 7.21875 73.2656 8.3125V10.1641L73.3125 11.5469L73.3359 14.8047C73.3359 15.5547 73.3516 16.3125 73.3828 17.0781C73.4141 17.8438 73.4375 18.4766 73.4531 18.9766L75.375 19.3516L75.3047 20.3594ZM69 11.5703V10.5859L70.6875 10.1406L72.2109 10.1875H75.8203V11.5703H69Z" fill="#FDF6EB"/>
<g clip-path="url(#clip0_295_309)">
<path d="M7.96231 7.48522L12.3376 24.9454M5.17611 12.8226L9.05614 11.8503M6.26994 17.1876L23.7301 12.8123M7.36377 21.5526L11.2438 20.5803M17.6624 5.05449L22.0377 22.5146M18.7562 9.41952L22.6362 8.44722M20.9439 18.1496L24.8239 17.1773M6.02229 7.97137L19.6024 4.56834C20.6738 4.29985 21.7601 4.95076 22.0286 6.02221L25.4316 19.6023C25.7001 20.6738 25.0492 21.76 23.9777 22.0285L10.3976 25.4315C9.32618 25.7 8.23995 25.0491 7.97146 23.9776L4.56842 10.3975C4.29993 9.32609 4.95085 8.23986 6.02229 7.97137Z" stroke="#F2C94C" stroke-width="2" stroke-linecap="round" stroke-linejoin="round"/>
</g>
<defs>
<clipPath id="clip0_295_309">
<rect width="24" height="24" fill="white" transform="translate(0.443115 6.27673) rotate(-14.068)"/>
</clipPath>
</defs>
</svg>
